<svg width="160" height="53" viewBox="0 0 160 53" fill="none" xmlns="http://www.w3.org/2000/svg">
<g clip-path="url(#clip0)">
<path d="M19.7047 0.00463867H21.1276C26.0672 0.112021 30.9262 2.0986 34.4162 5.61538C33.1276 6.93081 31.8121 8.19256 30.5504 9.508C28.5907 7.73618 26.2282 6.36706 23.6511 5.88383C19.839 5.07846 15.7316 5.8033 12.537 7.97779C9.04703 10.2597 6.68461 14.1254 6.17455 18.2597C5.61079 22.3402 6.76515 26.6355 9.42287 29.8033C11.9732 32.8906 15.8658 34.8234 19.8927 34.9577C23.6511 35.1724 27.5705 34.0181 30.3088 31.3872C32.4564 29.5348 33.4497 26.7161 33.7719 23.9778C29.3155 23.9778 24.8591 24.0046 20.4027 23.9778V18.4476H39.1678C40.1343 24.3805 38.7383 31.065 34.2282 35.3067C31.2215 38.3134 27.0604 40.0852 22.8188 40.4342C18.7115 40.8369 14.4698 40.0583 10.8188 38.0718C6.443 35.7362 2.95307 31.7899 1.23495 27.1456C-0.37579 22.8771 -0.402636 18.0449 1.10072 13.7496C2.46985 9.83014 5.10072 6.36706 8.48327 3.95095C11.7316 1.56169 15.6779 0.246249 19.7047 0.00463867Z" fill="white"/>
<path d="M127.356 1.40063H133.101V39.7362C131.195 39.7362 129.262 39.763 127.356 39.7094C127.383 26.9577 127.356 14.1792 127.356 1.40063Z" fill="white"/>
<path d="M51.9464 14.6893C55.49 14.0182 59.329 14.7699 62.2551 16.8907C64.9129 18.7699 66.7652 21.7229 67.329 24.9444C68.0538 28.6759 67.1411 32.7564 64.725 35.7095C62.1209 39.0115 57.8525 40.7833 53.6914 40.5148C49.8793 40.3001 46.1746 38.394 43.9196 35.2799C41.3692 31.8437 40.7518 27.1189 42.1478 23.092C43.5437 18.7699 47.49 15.4678 51.9464 14.6893ZM52.7518 19.79C51.3021 20.1658 49.9598 20.998 48.9934 22.1793C46.3894 25.2933 46.5504 30.3672 49.4229 33.2665C51.0605 34.9309 53.5303 35.7095 55.8122 35.2531C57.933 34.8772 59.7854 33.4544 60.8055 31.5752C62.5773 28.3806 62.0672 23.9779 59.3558 21.4813C57.6109 19.8705 55.0605 19.1994 52.7518 19.79Z" fill="white"/>
<path d="M80.4026 14.6893C84.4563 13.9108 88.8858 15.0383 91.9193 17.884C96.8589 22.3135 97.3958 30.6088 93.1811 35.7095C90.6307 38.931 86.4965 40.7028 82.416 40.5148C78.5234 40.4075 74.6845 38.4746 72.3757 35.2799C69.7717 31.7632 69.2079 26.9309 70.6844 22.8236C72.161 18.6356 76.0267 15.441 80.4026 14.6893ZM81.2079 19.79C79.7583 20.1658 78.416 20.9981 77.4495 22.1524C74.8724 25.2128 74.9798 30.2061 77.7449 33.1323C79.3824 34.8773 81.9328 35.7363 84.2952 35.2531C86.3891 34.8504 88.2683 33.4544 89.2885 31.5752C91.0334 28.3538 90.5234 23.9511 87.7851 21.4544C86.0401 19.8437 83.4898 19.1994 81.2079 19.79Z" fill="white"/>
<path d="M104.537 16.2462C107.624 14.3134 111.732 13.7764 115.06 15.4409C116.107 15.8972 116.966 16.6758 117.799 17.4543C117.826 16.7295 117.799 15.9778 117.826 15.2261C119.624 15.253 121.423 15.2261 123.248 15.253V38.9308C123.221 42.5013 122.309 46.2865 119.732 48.8906C116.913 51.7631 112.591 52.649 108.698 52.0584C104.537 51.4409 100.913 48.4073 99.302 44.5684C100.913 43.7899 102.604 43.1724 104.268 42.4476C105.208 44.649 107.114 46.5281 109.503 46.9577C111.893 47.3872 114.658 46.7966 116.215 44.81C117.879 42.7698 117.879 39.9778 117.799 37.4812C116.564 38.6892 115.141 39.763 113.423 40.1657C109.691 41.2127 105.584 39.9241 102.711 37.4006C99.8121 34.8771 98.094 30.9845 98.255 27.1187C98.3356 22.7429 100.805 18.5281 104.537 16.2462ZM110.094 19.6825C108.456 19.9509 106.926 20.8637 105.879 22.1254C103.356 25.1322 103.356 29.9375 105.906 32.8906C107.356 34.6355 109.691 35.602 111.946 35.3604C114.067 35.1456 116.027 33.8033 117.074 31.951C118.846 28.81 118.55 24.5416 116.161 21.8033C114.685 20.112 112.322 19.2798 110.094 19.6825Z" fill="white"/>
<path d="M140 17.6153C143.222 14.6086 148.188 13.5884 152.322 15.1723C156.242 16.6488 158.738 20.3804 160 24.2193C154.175 26.6354 148.376 29.0247 142.55 31.4408C143.356 32.971 144.591 34.367 146.255 34.9307C148.591 35.7629 151.383 35.4676 153.342 33.9106C154.121 33.32 154.738 32.5415 155.329 31.7898C156.805 32.7831 158.282 33.7495 159.758 34.7428C157.664 37.8837 154.148 40.0851 150.362 40.4341C146.175 40.9442 141.718 39.3334 139.007 36.0582C134.55 30.9039 134.98 22.2596 140 17.6153ZM142.873 22.5817C141.96 23.8972 141.584 25.5079 141.611 27.0918C145.503 25.4811 149.396 23.8703 153.289 22.2327C152.644 20.7294 151.087 19.8166 149.503 19.575C146.953 19.1186 144.295 20.4878 142.873 22.5817Z" fill="white"/>
</g>
<defs>
<clipPath id="clip0">
<rect width="160" height="52.224" fill="white"/>
</clipPath>
</defs>
</svg>
